# xmcd
#
# Track frame offsets:
#	150
#	17295
#	26357
#	39619
#	46058
#	57958
#	71479
#	89341
#	105165
#	113822
#	124187
#	137227
#	144017
#	160345
#	168218
#	178109
#	185185
#	206486
#	223507
#	237953
#	248866
#	267942
#	280620
#	293533
#	299475
#	312622
#
# Disc length: 4334 seconds
#
# Revision: 0
# Processed by: cddbd v1.5.2PL0 Copyright (c) Steve Scherf et al.
# Submitted via: EZCDAudioConverter 2.2.0.1
#
DISCID=7510ec1a
DTITLE=Sierra Boggess - Awakening: Live At 54 Below
DYEAR=2013
DGENRE=Musical
TTITLE0=I Have Confidence
TTITLE1=Welcome: Awakening
TTITLE2=Lovely
TTITLE3=Inspiration: Opera
TTITLE4=Quando M'en Vo
TTITLE5=Donde Lieta
TTITLE6=Inspiration: My Father
TTITLE7=Wildflowers
TTITLE8=Inspiration: Nature
TTITLE9=How Come
TTITLE10=Just Around The Riverbend
TTITLE11=Can You Imagine
TTITLE12=Part Of Your World
TTITLE13=Inspiration: You Are Enough!
TTITLE14=I Don't Care
TTITLE15=Inspiration: Gillian Lynne, Hal Prince, Andrew Lloyd Webber
TTITLE16=The Ultimate Medley With Apologies To Andrew Lloyd Webber
TTITLE17=Inspiration: Barbra Streisand
TTITLE18=Before The Parade Passes By
TTITLE19=A Quiet Thing
TTITLE20=Inspiration: Grandparents
TTITLE21=Smoke Gets In Your Eyes
TTITLE22=You'll Never Know
TTITLE23=Closing Remarks
TTITLE24=Live Out Loud
TTITLE25=A Dream Is A Wish Your Heart Makes  
EXTD=
EXTT0=
EXTT1=
EXTT2=
EXTT3=
EXTT4=
EXTT5=
EXTT6=
EXTT7=
EXTT8=
EXTT9=
EXTT10=
EXTT11=
EXTT12=
EXTT13=
EXTT14=
EXTT15=
EXTT16=
EXTT17=
EXTT18=
EXTT19=
EXTT20=
EXTT21=
EXTT22=
EXTT23=
EXTT24=
EXTT25=
PLAYORDER=
